<svg xmlns="http://www.w3.org/2000/svg" xmlns:xlink="http://www.w3.org/1999/xlink" viewBox="0 0 131.01 126.55">
  <defs>
    <linearGradient id="linear-gradient" x1="29.75" y1="100.29" x2="106.43" y2="23.61" gradientUnits="userSpaceOnUse">
      <stop offset="0" stop-color="#94e5ff"/>
      <stop offset="0.77" stop-color="#abaced"/>
      <stop offset="1" stop-color="#b29ae7"/>
    </linearGradient>
  </defs>
  <g id="Layer_2" data-name="Layer 2">
    <path d="M87.61,109.94c-21.07,10.58-49.54,6.78-66.16-20.45C6.58,65.14,17.68,29.61,44.3,15.85a58.3,58.3,0,0,1,25.23-6.6,50.54,50.54,0,0,1,27.55,7.12C113,26,121.27,41.86,119.9,65.79,120.05,87.24,105.34,101,87.61,109.94Z" stroke="#363636" stroke-miterlimit="10" stroke-width="4.25" fill="url(#linear-gradient)"/>
    <path d="M39.7,108c.16-16.66,11.2-33,25.41-33.06S91.66,88.11,91.52,106l-14.77,8.2c-4.93,1.21-20.9.37-25.52-1.72Z" fill="#3a3a3a"/>
    <path d="M53,50.43c.1-7.68,6.49-13.6,14.71-13.63A15.61,15.61,0,0,1,83,52.27c-.08,8.22-7.6,16.21-15.31,15.57C58.42,67.08,54.15,60.68,53,50.43Z" fill="#3a3a3a"/>
    <path d="M34.72,45.35a1.48,1.48,0,0,0,.88.93l3.74,1.46c.82,1.62.14,2.51-1.11,3.09a10.39,10.39,0,0,1-1.29.48,1.47,1.47,0,0,0-1,1.31c-.12,1.87-.24,3.64-.36,5.51a1.49,1.49,0,0,1-1.23,1.37l-.69.12a1.47,1.47,0,0,1-1.41-.55c-1.32-1.75-1.15-3.83-1.73-5.67a1.47,1.47,0,0,0-1.1-1L27.55,52a1.51,1.51,0,0,1-1.05-.87l-.15-.34A1.49,1.49,0,0,1,26.88,49l2.28-1.58a1.51,1.51,0,0,0,.61-1c.23-1.38.46-2.79.7-4.22A1.49,1.49,0,0,1,31.67,41h0a1.47,1.47,0,0,1,1.57.79c.3.58.59,1.16.84,1.75A18.51,18.51,0,0,1,34.72,45.35Z" fill="#3a3a3a"/>
    <path d="M105.8,47.39a2.93,2.93,0,0,1-1.25,1.31,5.23,5.23,0,0,1-1.53.4,3.78,3.78,0,0,1-1.3,0,2.79,2.79,0,0,1-1.37-.81,3.61,3.61,0,0,1,.62-5.62,5.87,5.87,0,0,1,1.68-.58,3.24,3.24,0,0,1,1.87.31,4,4,0,0,1,1.62,2.08,1.93,1.93,0,0,1,.15,1A5,5,0,0,1,105.8,47.39Z" fill="#3a3a3a"/>
    <path d="M86.79,27.87a2.79,2.79,0,0,1-1.25,1.31,4.67,4.67,0,0,1-1.53.4,3.79,3.79,0,0,1-1.3,0,2.92,2.92,0,0,1-1.37-.81A3.62,3.62,0,0,1,82,23.16a5.83,5.83,0,0,1,1.69-.58,3.3,3.3,0,0,1,1.86.31A4,4,0,0,1,87.13,25a2,2,0,0,1,.15,1A5,5,0,0,1,86.79,27.87Z" fill="#3a3a3a"/>
    <path d="M36.91,79.53a2.48,2.48,0,0,1-1.08,1.14A4.75,4.75,0,0,1,34.5,81a3.3,3.3,0,0,1-1.13,0,2.45,2.45,0,0,1-1.19-.7,3.14,3.14,0,0,1,.54-4.89,5,5,0,0,1,1.46-.5,2.81,2.81,0,0,1,1.62.27A3.52,3.52,0,0,1,37.21,77a1.81,1.81,0,0,1,.13.86A4.44,4.44,0,0,1,36.91,79.53Z" fill="#3a3a3a"/>
  </g>
</svg>
