<svg id="_ÎÓÈ_2" data-name="—ÎÓÈ_2" xmlns="http://www.w3.org/2000/svg" xmlns:xlink="http://www.w3.org/1999/xlink" viewBox="0 0 294.35 268.73">
  <defs>
    <linearGradient id="linear-gradient" x1="24.19" y1="188.43" x2="239.07" y2="188.43" gradientUnits="userSpaceOnUse">
      <stop offset="0" stop-color="#94e5ff"/>
      <stop offset="0.77" stop-color="#abaced"/>
      <stop offset="1" stop-color="#b29ae7"/>
    </linearGradient>
  </defs>
  <g>
    <path d="M267.94,38.75c-1.54,4.66-7.6,10.5-11.79,15.07-5.57,6.06-15,16.17-20.6,22.23A126.12,126.12,0,0,1,223,88.51c-6.2,5.07-11.79,6.93-14,4.52-2.9-3.22-6.78-5.44-9.68-8.66-1.61-1.79-3.24-3.74-2.39-7.52,1.15-5.15,7-12.74,12.59-18.33,8.13-8.18,18.74-19.81,26.92-27.93a84.32,84.32,0,0,1,7.09-6.54c3.31-2.59,6.32-3.81,8.42-3.65S269.12,35.19,267.94,38.75Z" fill="#e7e6da" stroke="#363636" stroke-miterlimit="10" stroke-width="6.36"/>
    <path d="M272.71,77.79c-3.82,10.28-9.16,14.49-21.7,12.85-4-.57-7.95-1.83-11.9-2.78-3.25-.78-9.8,10-10.93,12.32a28.61,28.61,0,0,0-2.82,16.15c-.05,0-.05,0,0,.08H39.3a1.31,1.31,0,0,0,.26-.3,77.12,77.12,0,0,1,6.38-6.51C65.47,92,85.61,75,105.44,57.65c5.6-4.9,11.29-9.85,18.06-13,9.11-4.16,19.35-3.42,28.12,1.18,9.33,4.94,15.49,15.75,25.87,18.57,9.11,2.52,18.27-3,23.69-9.89-2-2.69-4.16-5.21-6-8a28.9,28.9,0,0,1-3.64-6.9C188,27.71,196.15,15.94,209,14.9,214.16,14.51,274.44,73.1,272.71,77.79Z" fill="none" stroke="#363636" stroke-linejoin="round" stroke-width="6.36"/>
    <path d="M239.07,153.09c.09,14.93-14.1,26.47-23.22,36.5L178,231.38c-9.07,10-21.09,17.93-33.11,24.17-16.84,8.73-36.5,5.65-49.26-8.11-17-18.45-31.51-34.55-48.56-53-9.46-10.2-19.32-21.14-22.09-34.77a36.54,36.54,0,0,1-.74-6.59c-.26-13.24,6.33-26.48,15.1-36.68H225.36a12.87,12.87,0,0,0,.17,1.39c2,12.11,12.37,21.23,13.45,33.38C239,151.83,239.07,152.48,239.07,153.09Z" stroke="#363636" stroke-miterlimit="10" stroke-width="7" fill="url(#linear-gradient)"/>
    <path d="M199.62,55.53c4.93,4.82,27.6,29.55,39.49,32.33" fill="#e7e6da" stroke="#363636" stroke-miterlimit="10" stroke-width="6.36"/>
    <path d="M121.89,235.18a6.07,6.07,0,0,1-2.76,7c-3.91,2-6.9,1.54-10.89-1.87-1.7-1.45-2.84-4-1.33-8.42a6.25,6.25,0,0,1,5.65-4.13C118.83,227.47,120,228.46,121.89,235.18Z" fill="#3a3a3a"/>
    <path d="M107.51,211.45a4.7,4.7,0,0,1-2.13,5.41c-3,1.58-5.33,1.19-8.41-1.44-1.31-1.12-2.19-3.11-1-6.51a4.8,4.8,0,0,1,4.35-3.18C105.15,205.5,106.07,206.27,107.51,211.45Z" fill="#3a3a3a"/>
    <path d="M120.13,193.65a4.7,4.7,0,0,1-2.13,5.41c-3,1.58-5.33,1.19-8.41-1.44-1.31-1.12-2.19-3.11-1-6.51a4.81,4.81,0,0,1,4.35-3.18C117.77,187.7,118.69,188.47,120.13,193.65Z" fill="#3a3a3a"/>
    <path d="M106.52,176.5a3.4,3.4,0,0,1-1.54,3.92c-2.2,1.15-3.87.86-6.11-1-1-.82-1.59-2.26-.74-4.72a3.48,3.48,0,0,1,3.16-2.31C104.81,172.18,105.48,172.74,106.52,176.5Z" fill="#3a3a3a"/>
    <path d="M192.28,172.11a3.4,3.4,0,0,1-1.54,3.92c-2.19,1.15-3.87.86-6.11-1-.95-.82-1.58-2.26-.74-4.72a3.48,3.48,0,0,1,3.17-2.31C190.57,167.79,191.24,168.35,192.28,172.11Z" fill="#3a3a3a"/>
    <path d="M187.82,189.34a3.4,3.4,0,0,1-1.54,3.93c-2.19,1.14-3.87.86-6.1-1.05-1-.81-1.59-2.25-.75-4.72a3.51,3.51,0,0,1,3.17-2.31C186.11,185,186.78,185.58,187.82,189.34Z" fill="#3a3a3a"/>
    <path d="M130.7,67.66C104,91,60.1,129.17,60.1,129.17" fill="#e7e6da" stroke="#363636" stroke-linecap="round" stroke-linejoin="round" stroke-width="6.36"/>
  </g>
</svg>
